<?xml version="1.0" ?><svg id="Layer_1" style="enable-background:new 0 0 1024 1024;" version="1.1" viewBox="0 0 1024 1024" xml:space="preserve" xmlns="http://www.w3.org/2000/svg" xmlns:xlink="http://www.w3.org/1999/xlink"><path d="M924.9,369.1c0,58.4-22.6,113.1-63.6,154.1L512,872.6L162.7,523.3c-41-41-63.6-95.8-63.6-154.1  c0-58.4,22.6-113.1,63.6-154.1c41-41,95.8-63.6,154.2-63.6C375.2,151.4,430,174,471,215l41,41l41-41c41-41,95.8-63.6,154.1-63.6  c58.4,0,113.1,22.6,154.2,63.6c20.5,20.5,36.4,44.5,47.2,70.6C919.3,311.7,924.9,340,924.9,369.1z" id="XMLID_219_"/><g id="XMLID_1_"/><g id="XMLID_2_"/><g id="XMLID_3_"/><g id="XMLID_4_"/><g id="XMLID_5_"/></svg>